<svg width="32" height="32" viewBox="0 0 32 32" fill="none" xmlns="http://www.w3.org/2000/svg">
<path fill-rule="evenodd" clip-rule="evenodd" d="M23.1068 7.18164C23.1116 7.18651 23.1116 7.19623 23.1116 7.21567C23.1116 7.22198 23.1127 7.2283 23.1137 7.23477C23.1191 7.26821 23.1253 7.30608 22.995 7.37124V14.7994C22.995 15.0327 22.8783 15.2272 22.6838 15.3439L16.1891 19.1163C16.1696 19.1163 16.1502 19.126 16.1307 19.1357C16.1113 19.1454 16.0918 19.1552 16.0724 19.1552H16.0335C15.9946 19.194 15.9168 19.194 15.8779 19.194C15.8585 19.194 15.8293 19.1843 15.8002 19.1746C15.771 19.1649 15.7418 19.1552 15.7224 19.1552C15.7224 19.1163 15.6835 19.1163 15.6835 19.1163C15.6835 19.1163 15.6446 19.0774 15.6057 19.0774L9.07204 14.7605C8.91648 14.6438 8.7998 14.4494 8.7998 14.216V7.41013C8.7998 7.17678 8.91648 6.98233 9.11093 6.86566L9.49984 6.63231L15.9557 3.2877C16.1502 3.17103 16.3835 3.17103 16.578 3.2877L22.7616 6.86566C22.7811 6.86566 22.7908 6.87538 22.8005 6.8851C22.8102 6.89482 22.82 6.90455 22.8394 6.90455C22.8783 6.90455 22.9172 6.90455 22.9172 6.94344C22.932 6.95829 22.9469 6.96747 22.9596 6.97532C22.9801 6.988 22.995 6.99718 22.995 7.02122L23.0339 7.06011C23.0339 7.07956 23.0436 7.099 23.0533 7.11845C23.063 7.13789 23.0727 7.15734 23.0727 7.17678C23.0922 7.17678 23.1019 7.17678 23.1068 7.18164ZM21.206 7.37124L16.3057 4.53221L11.211 7.21567L16.1891 10.1325L21.206 7.37124ZM15.3335 11.2603L10.0832 8.03238V13.8271L15.3335 17.2884V11.2603ZM16.6558 11.4937L16.6169 17.3662L21.8671 14.3716V8.49907L16.6558 11.4937ZM10.4721 26.6223H11.6777C11.6777 27.3223 12.2221 27.7112 12.9222 27.7112C13.6611 27.7112 14.1278 27.3612 14.1278 26.739C14.1278 26.1556 13.6611 25.8056 12.9222 25.8056H12.2999V24.7555H12.8833C13.4667 24.7555 13.8556 24.4055 13.8556 23.8999C13.8556 23.3944 13.4278 23.0832 12.8055 23.0832C12.2221 23.0832 11.7943 23.3944 11.7555 24.0555H10.5887C10.5887 22.7721 11.6388 21.9943 12.8444 21.9943C14.1278 21.9943 15.0612 22.7721 15.0612 23.7833C15.0612 24.4055 14.7112 24.95 14.2445 25.2222C14.9056 25.4556 15.3334 26.0389 15.3334 26.7779C15.3334 28.0613 14.2056 28.8002 12.8833 28.8002C11.561 28.7613 10.4721 27.9446 10.4721 26.6223ZM16.4224 22.0722H18.5614C20.3892 22.0722 21.9449 23.1611 21.9449 25.3779C21.9449 27.5947 20.3892 28.6836 18.5614 28.6836H16.4224V22.0722ZM18.4447 27.5946C19.5725 27.5946 20.6615 27.0113 20.6615 25.3779C20.6615 23.7445 19.5725 23.1611 18.4447 23.1611H17.6669V27.6335H18.4447V27.5946Z" fill="black"/>
</svg>
