<svg width="32" height="32" viewBox="0 0 32 32" fill="none" xmlns="http://www.w3.org/2000/svg">
<path fill-rule="evenodd" clip-rule="evenodd" d="M15.9971 22.8003C15.848 22.7985 15.7025 22.7621 15.5711 22.6931V22.6922C15.4397 22.6242 15.3269 22.5244 15.242 22.4032L10.4236 15.5285C9.70716 14.5076 9.28462 13.3096 9.20205 12.0651C9.11948 10.8207 9.38004 9.5774 9.95534 8.4708C10.5306 7.3642 11.3986 6.43672 12.4647 5.78941C13.5308 5.14211 14.7541 4.7998 16.0013 4.7998C17.2485 4.7998 18.4718 5.14211 19.5379 5.78941C20.604 6.43672 21.4719 7.3642 22.0472 8.4708C22.6226 9.5774 22.8831 10.8207 22.8005 12.0651C22.718 13.3096 22.2954 14.5076 21.579 15.5285L16.7317 22.4032C16.649 22.5225 16.5395 22.6206 16.4119 22.6896C16.2842 22.7586 16.1421 22.7966 15.9971 22.8003ZM12.5993 7.49124C11.5544 8.34191 10.8709 9.5571 10.6865 10.8918C10.502 12.2266 10.8305 13.5817 11.6056 14.6839L15.9775 20.9229L20.3774 14.7342C21.1668 13.6786 21.5383 12.3686 21.4205 11.0557C21.3027 9.74286 20.704 8.51982 19.7394 7.62154C18.7747 6.72326 17.5122 6.21309 16.1943 6.18904C14.8764 6.16499 13.5961 6.62875 12.5993 7.49124ZM13.8587 14.7874C14.4915 15.211 15.2356 15.4377 15.9971 15.439V15.4483C17.0125 15.4484 17.9869 15.0478 18.7086 14.3335C19.4303 13.6193 19.8411 12.6492 19.8517 11.6338C19.8543 11.1269 19.7563 10.6245 19.5635 10.1557C19.3707 9.68688 19.0869 9.26093 18.7285 8.90249C18.37 8.54404 17.9441 8.26022 17.4753 8.06743C17.0064 7.87464 16.504 7.77671 15.9971 7.7793C15.4944 7.77156 14.9951 7.86327 14.528 8.04917C14.0609 8.23506 13.6351 8.51147 13.2752 8.86249C12.8731 9.26544 12.5654 9.75242 12.3739 10.2885C12.1825 10.8245 12.1121 11.3963 12.1679 11.9627C12.2237 12.5292 12.4042 13.0763 12.6966 13.5646C12.9889 14.053 13.3858 14.4706 13.8587 14.7874ZM14.0144 12.9091C13.7524 12.517 13.6126 12.056 13.6126 11.5844V11.5938C13.6107 11.0216 13.8146 10.4678 14.1872 10.0334C14.5597 9.59909 15.076 9.3132 15.6418 9.22794C16.2076 9.14267 16.7852 9.26371 17.2692 9.56897C17.7532 9.87423 18.1112 10.3434 18.278 10.8907C18.4448 11.4381 18.4093 12.0271 18.1778 12.5504C17.9463 13.0737 17.5344 13.4963 17.0172 13.7411C16.5 13.9859 15.912 14.0365 15.3605 13.8838C14.8091 13.731 14.331 13.3851 14.0134 12.9091H14.0144ZM5.02541 26.956C5.09376 27.0246 5.17497 27.079 5.2644 27.1161C5.35382 27.1532 5.44968 27.1723 5.5465 27.1723H26.4487C26.5399 27.1775 26.6313 27.1638 26.7171 27.1322C26.8094 27.103 26.8948 27.0554 26.9682 26.9923C27.0416 26.9292 27.1014 26.8518 27.1441 26.7649C27.2184 26.5836 27.2184 26.3804 27.1441 26.1991L24.7204 19.0558C24.6676 18.9108 24.5717 18.7855 24.4456 18.6966C24.3194 18.6078 24.169 18.5598 24.0147 18.559H20.1304V19.9899H23.5179L25.4456 25.6621H6.56816L8.50709 20.0299H11.8741V18.559H7.94032C7.78673 18.5575 7.63664 18.6048 7.51166 18.6941C7.38668 18.7834 7.29328 18.91 7.24492 19.0558L4.81101 26.2075C4.79607 26.2829 4.79607 26.3605 4.81101 26.4358C4.81101 26.6316 4.88838 26.818 5.02541 26.956Z" fill="black"/>
</svg>
