<svg width="32" height="32" viewBox="0 0 32 32" fill="none" xmlns="http://www.w3.org/2000/svg">
<path fill-rule="evenodd" clip-rule="evenodd" d="M7.80167 10.9994L7.80034 10.9997H7.8015C7.80156 10.9996 7.80162 10.9995 7.80167 10.9994ZM10.4458 10.4253L7.80167 10.9994C8.83996 9.25878 10.3939 7.88939 12.2451 7.08363C14.0964 6.27783 16.152 6.07624 18.123 6.50718C20.094 6.93812 21.8813 7.97993 23.2339 9.48622C24.5864 10.9925 25.4361 12.8875 25.6635 14.9051C25.891 16.9226 25.4848 18.9611 24.5021 20.7342C23.5193 22.5074 22.0094 23.9259 20.1845 24.7906C18.3596 25.6553 16.3114 25.9226 14.3278 25.5551C12.3442 25.1875 10.5248 24.2034 9.12538 22.7412C8.99102 22.5964 8.80752 22.5078 8.61126 22.4928C8.41501 22.4778 8.22032 22.5376 8.06581 22.6603C7.99053 22.7206 7.92837 22.7958 7.88321 22.8814C7.83805 22.9669 7.81086 23.0608 7.80333 23.1573C7.79579 23.2539 7.80807 23.3509 7.83941 23.4425C7.87074 23.534 7.92046 23.6181 7.98547 23.6895C9.57454 25.3835 11.6489 26.5364 13.9195 26.9877C16.1901 27.439 18.5441 27.1661 20.6534 26.2072C22.7627 25.2482 24.5225 23.6508 25.6875 21.6376C26.8525 19.6243 27.3649 17.2954 27.1531 14.9752C26.9414 12.655 26.0161 10.459 24.5062 8.69316C22.9963 6.9273 20.9769 5.67944 18.7293 5.12341C16.4817 4.56738 14.1178 4.73084 11.9669 5.59104C9.81592 6.45124 7.985 7.96535 6.72912 9.92247L6.41707 7.9087C6.37943 7.69781 6.26134 7.51011 6.08804 7.38571C5.91474 7.26132 5.69998 7.21011 5.48966 7.24302C5.27934 7.27593 5.09016 7.39037 4.96255 7.56185C4.83493 7.73334 4.77902 7.94827 4.80676 8.16072L5.44483 12.2867C5.47274 12.4679 5.56016 12.6345 5.69312 12.7599C5.82608 12.8852 5.99692 12.9621 6.17838 12.9783C6.27334 12.9917 6.36992 12.9882 6.46365 12.9677L10.7893 12.0312C10.894 12.0085 10.9933 11.9652 11.0814 11.9039C11.1695 11.8426 11.2448 11.7644 11.3029 11.6738C11.3611 11.5832 11.4009 11.4819 11.4201 11.3758C11.4394 11.2697 11.4377 11.1608 11.4151 11.0554C11.3925 10.9499 11.3496 10.85 11.2887 10.7613C11.2277 10.6725 11.1501 10.5968 11.0601 10.5382C10.97 10.4797 10.8695 10.4397 10.7641 10.4203C10.6587 10.4009 10.5505 10.4026 10.4458 10.4253ZM16.4071 23.3935C16.4869 23.3593 16.559 23.3093 16.6192 23.2464C17.1234 22.719 21.5445 18.0162 21.5445 15.1972C21.5429 13.7587 20.9748 12.3796 19.9646 11.3622C18.9544 10.3448 17.5847 9.77226 16.1558 9.77009C14.7265 9.77164 13.3562 10.3439 12.3455 11.3614C11.3348 12.3788 10.7663 13.7583 10.7648 15.1972C10.7648 18.0162 15.1859 22.719 15.6901 23.2464C15.7502 23.3093 15.8224 23.3593 15.9022 23.3935C15.982 23.4277 16.0679 23.4453 16.1546 23.4453C16.2414 23.4453 16.3272 23.4277 16.4071 23.3935ZM19.0526 12.2783C19.8215 13.0526 20.2537 14.1024 20.2544 15.1972L20.252 15.196C20.252 16.9367 17.6182 20.2176 16.1535 21.8422C14.6887 20.2176 12.0526 16.9367 12.0526 15.196C12.0538 14.1015 12.4863 13.0522 13.2551 12.2782C14.0239 11.5043 15.0662 11.0689 16.1535 11.0677C17.241 11.0686 18.2837 11.504 19.0526 12.2783ZM18.0156 13.2081C17.5216 12.711 16.8519 12.4315 16.1535 12.4309C15.4551 12.4318 14.7856 12.7114 14.2917 13.2084C13.7978 13.7054 13.5198 14.3793 13.5185 15.0823C13.5194 15.7856 13.7974 16.4597 14.2913 16.957C14.7853 17.4542 15.4549 17.734 16.1535 17.7349C16.852 17.734 17.5217 17.4542 18.0157 16.957C18.5096 16.4597 18.7875 15.7856 18.7884 15.0823C18.7875 14.3792 18.5096 13.7052 18.0156 13.2081ZM15.0344 15.8359C14.8868 15.6127 14.8082 15.3505 14.8086 15.0823C14.8086 14.3368 15.4118 13.7297 16.1535 13.7297C16.4198 13.7294 16.6803 13.8088 16.9018 13.9576C17.1234 14.1065 17.2961 14.3181 17.3981 14.5659C17.5001 14.8136 17.5267 15.0862 17.4748 15.3492C17.4228 15.6122 17.2944 15.8537 17.106 16.0432C16.9176 16.2328 16.6775 16.3617 16.4162 16.4138C16.1549 16.466 15.8842 16.4389 15.6382 16.336C15.3922 16.2331 15.1821 16.0591 15.0344 15.8359Z" fill="black"/>
</svg>
