<svg width="32" height="32" viewBox="0 0 32 32" fill="none" xmlns="http://www.w3.org/2000/svg">
<path fill-rule="evenodd" clip-rule="evenodd" d="M14.5458 13.8242C15.1228 13.4386 15.8293 13.298 16.51 13.4333C17.1907 13.5686 17.7897 13.9688 18.1754 14.5458C18.561 15.1228 18.7016 15.8294 18.5663 16.51C18.431 17.1907 18.0308 17.7898 17.4538 18.1754C17.1681 18.3663 16.8476 18.4991 16.5106 18.5662C16.1735 18.6333 15.8266 18.6333 15.4896 18.5663C14.8089 18.431 14.2098 18.0308 13.8242 17.4538C13.4386 16.8768 13.298 16.1703 13.4333 15.4896C13.5686 14.8089 13.9688 14.2099 14.5458 13.8242ZM15.0314 17.4499C15.2217 17.5836 15.4368 17.6779 15.664 17.7273C15.8912 17.7767 16.1261 17.7802 16.3547 17.7375C16.5833 17.6948 16.801 17.6069 16.9951 17.4788C17.1892 17.3507 17.3558 17.1852 17.485 16.9918C17.6142 16.7985 17.7034 16.5812 17.7474 16.3529C17.7914 16.1245 17.7893 15.8897 17.7413 15.6622C17.6932 15.4346 17.6002 15.219 17.4675 15.028C17.3349 14.837 17.1655 14.6744 16.9691 14.5498C16.5845 14.3012 16.1176 14.2139 15.6691 14.3066C15.2206 14.3993 14.8266 14.6647 14.5721 15.0454C14.3176 15.4261 14.223 15.8917 14.3087 16.3415C14.3945 16.7914 14.6537 17.1895 15.0304 17.4499H15.0314Z" fill="black"/>
<path fill-rule="evenodd" clip-rule="evenodd" d="M23.9805 15.5637H26.4663C26.582 15.5637 26.6929 15.6097 26.7747 15.6915C26.8565 15.7733 26.9024 15.8842 26.9024 15.9999C26.9024 16.1155 26.8565 16.2264 26.7747 16.3082C26.6929 16.39 26.582 16.436 26.4663 16.436H23.9805C23.8688 18.4005 23.0381 20.2553 21.6467 21.6467C20.2553 23.0381 18.4005 23.8689 16.4359 23.9806V26.4664C16.4359 26.5821 16.39 26.693 16.3082 26.7748C16.2264 26.8566 16.1155 26.9025 15.9998 26.9025C15.8841 26.9025 15.7732 26.8566 15.6914 26.7748C15.6096 26.693 15.5637 26.5821 15.5637 26.4664V23.9806C13.599 23.8691 11.7441 23.0384 10.3527 21.647C8.96123 20.2555 8.13055 18.4006 8.01905 16.436H5.53324C5.41758 16.436 5.30666 16.39 5.22487 16.3082C5.14308 16.2264 5.09714 16.1155 5.09714 15.9999C5.09714 15.8842 5.14308 15.7733 5.22487 15.6915C5.30666 15.6097 5.41758 15.5637 5.53324 15.5637H8.01905C8.13055 13.5991 8.96123 11.7442 10.3527 10.3527C11.7441 8.96129 13.599 8.13061 15.5637 8.01911V5.5333C15.5637 5.41764 15.6096 5.30672 15.6914 5.22493C15.7732 5.14314 15.8841 5.0972 15.9998 5.0972C16.1155 5.0972 16.2264 5.14314 16.3082 5.22493C16.39 5.30672 16.4359 5.41764 16.4359 5.5333V8.01911C18.4005 8.13061 20.2554 8.96129 21.6469 10.3527C23.0384 11.7442 23.869 13.5991 23.9805 15.5637ZM16.4359 20.797V23.1084C18.1781 22.99 19.8184 22.2443 21.0531 21.0096C22.2879 19.7748 23.0335 18.1345 23.1519 16.3923H20.797C20.6813 16.3923 20.5704 16.3464 20.4886 16.2646C20.4068 16.1828 20.3609 16.0719 20.3609 15.9562C20.3609 15.8406 20.4068 15.7297 20.4886 15.6479C20.5704 15.5661 20.6813 15.5201 20.797 15.5201H23.0647C22.9546 13.7866 22.2163 12.1527 20.988 10.9244C19.7598 9.69613 18.1258 8.9578 16.3923 8.84771V11.2027C16.3923 11.3183 16.3463 11.4293 16.2646 11.5111C16.1828 11.5928 16.0718 11.6388 15.9562 11.6388C15.8405 11.6388 15.7296 11.5928 15.6478 11.5111C15.566 11.4293 15.5201 11.3183 15.5201 11.2027V8.93493C13.7865 9.04502 12.1526 9.78335 10.9243 11.0116C9.69607 12.2399 8.95774 13.8738 8.84765 15.6074H11.2026C11.3183 15.6074 11.4292 15.6533 11.511 15.7351C11.5928 15.8169 11.6387 15.9278 11.6387 16.0435C11.6387 16.1591 11.5928 16.2701 11.511 16.3518C11.4292 16.4336 11.3183 16.4796 11.2026 16.4796H8.89126C9.00135 18.2131 9.73968 19.847 10.9679 21.0753C12.1962 22.3036 13.8301 23.0419 15.5637 23.152V20.797C15.5637 20.6814 15.6096 20.5704 15.6914 20.4886C15.7732 20.4069 15.8841 20.3609 15.9998 20.3609C16.1155 20.3609 16.2264 20.4069 16.3082 20.4886C16.39 20.5704 16.4359 20.6814 16.4359 20.797Z" fill="black"/>
<path d="M14.5458 13.8242C15.1228 13.4386 15.8293 13.298 16.51 13.4333C17.1907 13.5686 17.7897 13.9688 18.1754 14.5458C18.561 15.1228 18.7016 15.8294 18.5663 16.51C18.431 17.1907 18.0308 17.7898 17.4538 18.1754C17.1681 18.3663 16.8476 18.4991 16.5106 18.5662C16.1735 18.6333 15.8266 18.6333 15.4896 18.5663C14.8089 18.431 14.2098 18.0308 13.8242 17.4538C13.4386 16.8768 13.298 16.1703 13.4333 15.4896C13.5686 14.8089 13.9688 14.2099 14.5458 13.8242ZM15.0314 17.4499C15.2217 17.5836 15.4368 17.6779 15.664 17.7273C15.8912 17.7767 16.1261 17.7802 16.3547 17.7375C16.5833 17.6948 16.801 17.6069 16.9951 17.4788C17.1892 17.3507 17.3558 17.1852 17.485 16.9918C17.6142 16.7985 17.7034 16.5812 17.7474 16.3529C17.7914 16.1245 17.7893 15.8897 17.7413 15.6622C17.6932 15.4346 17.6002 15.219 17.4675 15.028C17.3349 14.837 17.1655 14.6744 16.9691 14.5498C16.5845 14.3012 16.1176 14.2139 15.6691 14.3066C15.2206 14.3993 14.8266 14.6647 14.5721 15.0454C14.3176 15.4261 14.223 15.8917 14.3087 16.3415C14.3945 16.7914 14.6537 17.1895 15.0304 17.4499H15.0314Z" fill="black"/>
<path fill-rule="evenodd" clip-rule="evenodd" d="M16.452 13.7249C15.8487 13.605 15.2224 13.7296 14.711 14.0714C14.1996 14.4132 13.8449 14.9442 13.7249 15.5475C13.605 16.1509 13.7296 16.7771 14.0714 17.2886C14.4133 17.8 14.9442 18.1547 15.5476 18.2746C15.8463 18.334 16.1538 18.334 16.4525 18.2745C16.7513 18.2151 17.0354 18.0974 17.2886 17.9281C17.8 17.5863 18.1547 17.0554 18.2747 16.452C18.3946 15.8487 18.27 15.2224 17.9282 14.711C17.5864 14.1995 17.0554 13.8448 16.452 13.7249ZM14.3806 13.577C15.0231 13.1475 15.81 12.9909 16.568 13.1416C17.326 13.2923 17.9931 13.738 18.4226 14.3805C18.852 15.0231 19.0086 15.8099 18.858 16.568C18.7073 17.326 18.2616 17.9931 17.619 18.4226C17.3009 18.6352 16.9439 18.7831 16.5686 18.8578C16.1933 18.9325 15.8069 18.9325 15.4316 18.8579C14.6736 18.7072 14.0065 18.2616 13.577 17.619C13.1476 16.9765 12.991 16.1896 13.1417 15.4316C13.2924 14.6736 13.738 14.0064 14.3806 13.577ZM17.1295 14.2993C17.3589 14.4451 17.5569 14.6351 17.7118 14.8584C17.867 15.082 17.976 15.3344 18.0322 15.6007C18.0885 15.867 18.0909 16.1418 18.0394 16.4091C17.9879 16.6764 17.8834 16.9306 17.7322 17.157C17.581 17.3833 17.3861 17.5771 17.1589 17.727C16.9317 17.8768 16.6768 17.9798 16.4092 18.0297C16.1417 18.0797 15.8668 18.0756 15.6009 18.0178C15.3666 17.9669 15.1435 17.8752 14.9414 17.7472H14.9377L14.8614 17.6944C14.4205 17.3897 14.117 16.9237 14.0167 16.3972C13.9163 15.8706 14.027 15.3257 14.3249 14.8801C14.6228 14.4345 15.084 14.1239 15.6089 14.0154C16.1334 13.9069 16.6795 14.0089 17.1295 14.2993ZM16.8078 14.7995C16.4887 14.5933 16.1013 14.5208 15.7293 14.5977C15.3573 14.6747 15.0304 14.8948 14.8193 15.2106C14.6082 15.5264 14.5297 15.9126 14.6008 16.2858C14.6686 16.6413 14.867 16.9579 15.1558 17.1738L15.2024 17.2066C15.3603 17.3175 15.5387 17.3957 15.7272 17.4367C15.9157 17.4777 16.1105 17.4805 16.3001 17.4451C16.4897 17.4097 16.6704 17.3368 16.8314 17.2306C16.9924 17.1243 17.1306 16.987 17.2377 16.8266C17.3449 16.6662 17.4189 16.486 17.4554 16.2965C17.492 16.1071 17.4902 15.9123 17.4504 15.7236C17.4105 15.5348 17.3333 15.356 17.2233 15.1975C17.1133 15.039 16.9727 14.9041 16.8098 14.8008L16.8078 14.7995Z" fill="black"/>
<path d="M23.9805 15.5637H26.4663C26.582 15.5637 26.6929 15.6097 26.7747 15.6915C26.8565 15.7733 26.9024 15.8842 26.9024 15.9999C26.9024 16.1155 26.8565 16.2264 26.7747 16.3082C26.6929 16.39 26.582 16.436 26.4663 16.436H23.9805C23.8688 18.4005 23.0381 20.2553 21.6467 21.6467C20.2553 23.0381 18.4005 23.8689 16.4359 23.9806V26.4664C16.4359 26.5821 16.39 26.693 16.3082 26.7748C16.2264 26.8566 16.1155 26.9025 15.9998 26.9025C15.8841 26.9025 15.7732 26.8566 15.6914 26.7748C15.6096 26.693 15.5637 26.5821 15.5637 26.4664V23.9806C13.599 23.8691 11.7441 23.0384 10.3527 21.647C8.96123 20.2555 8.13055 18.4006 8.01905 16.436H5.53324C5.41758 16.436 5.30666 16.39 5.22487 16.3082C5.14308 16.2264 5.09714 16.1155 5.09714 15.9999C5.09714 15.8842 5.14308 15.7733 5.22487 15.6915C5.30666 15.6097 5.41758 15.5637 5.53324 15.5637H8.01905C8.13055 13.5991 8.96123 11.7442 10.3527 10.3527C11.7441 8.96129 13.599 8.13061 15.5637 8.01911V5.5333C15.5637 5.41764 15.6096 5.30672 15.6914 5.22493C15.7732 5.14314 15.8841 5.0972 15.9998 5.0972C16.1155 5.0972 16.2264 5.14314 16.3082 5.22493C16.39 5.30672 16.4359 5.41764 16.4359 5.5333V8.01911C18.4005 8.13061 20.2554 8.96129 21.6469 10.3527C23.0384 11.7442 23.869 13.5991 23.9805 15.5637ZM16.4359 20.797V23.1084C18.1781 22.99 19.8184 22.2443 21.0531 21.0096C22.2879 19.7748 23.0335 18.1345 23.1519 16.3923H20.797C20.6813 16.3923 20.5704 16.3464 20.4886 16.2646C20.4068 16.1828 20.3609 16.0719 20.3609 15.9562C20.3609 15.8406 20.4068 15.7297 20.4886 15.6479C20.5704 15.5661 20.6813 15.5201 20.797 15.5201H23.0647C22.9546 13.7866 22.2163 12.1527 20.988 10.9244C19.7598 9.69613 18.1258 8.9578 16.3923 8.84771V11.2027C16.3923 11.3183 16.3463 11.4293 16.2646 11.5111C16.1828 11.5928 16.0718 11.6388 15.9562 11.6388C15.8405 11.6388 15.7296 11.5928 15.6478 11.5111C15.566 11.4293 15.5201 11.3183 15.5201 11.2027V8.93493C13.7865 9.04502 12.1526 9.78335 10.9243 11.0116C9.69607 12.2399 8.95774 13.8738 8.84765 15.6074H11.2026C11.3183 15.6074 11.4292 15.6533 11.511 15.7351C11.5928 15.8169 11.6387 15.9278 11.6387 16.0435C11.6387 16.1591 11.5928 16.2701 11.511 16.3518C11.4292 16.4336 11.3183 16.4796 11.2026 16.4796H8.89126C9.00135 18.2131 9.73968 19.847 10.9679 21.0753C12.1962 22.3036 13.8301 23.0419 15.5637 23.152V20.797C15.5637 20.6814 15.6096 20.5704 15.6914 20.4886C15.7732 20.4069 15.8841 20.3609 15.9998 20.3609C16.1155 20.3609 16.2264 20.4069 16.3082 20.4886C16.39 20.5704 16.4359 20.6814 16.4359 20.797Z" fill="black"/>
<path fill-rule="evenodd" clip-rule="evenodd" d="M15.9998 5.39449C15.963 5.39449 15.9277 5.40911 15.9017 5.43514C15.8757 5.46116 15.861 5.49645 15.861 5.53326V8.30001L15.5805 8.31593C13.6888 8.42329 11.9028 9.22314 10.5629 10.5629C9.22314 11.9028 8.42329 13.6888 8.31593 15.5805L8.30001 15.861H5.53326C5.49645 15.861 5.46116 15.8757 5.43514 15.9017C5.40911 15.9277 5.39449 15.963 5.39449 15.9998C5.39449 16.0366 5.40911 16.0719 5.43514 16.0979C5.46116 16.1239 5.49645 16.1386 5.53326 16.1386H8.30001L8.31593 16.4191C8.42329 18.3108 9.22314 20.0968 10.5629 21.4367C11.9028 22.7765 13.6888 23.5763 15.5805 23.6837L15.861 23.6996V26.4663C15.861 26.5032 15.8757 26.5384 15.9017 26.5645C15.9277 26.5905 15.963 26.6051 15.9998 26.6051C16.0366 26.6051 16.0719 26.5905 16.0979 26.5645C16.1239 26.5384 16.1386 26.5032 16.1386 26.4663V23.6996L16.419 23.6837C18.3107 23.5761 20.0966 22.7762 21.4364 21.4364C22.7762 20.0966 23.5761 18.3107 23.6837 16.419L23.6996 16.1386H26.4664C26.5032 16.1386 26.5384 16.1239 26.5645 16.0979C26.5905 16.0719 26.6051 16.0366 26.6051 15.9998C26.6051 15.963 26.5905 15.9277 26.5645 15.9017C26.5384 15.8757 26.5032 15.861 26.4664 15.861H23.9805L23.9805 15.5637L23.6837 15.5805C23.5763 13.6888 22.7765 11.9028 21.4367 10.5629C20.0968 9.22314 18.3108 8.42329 16.4191 8.31593L16.1386 8.30001V5.53326C16.1386 5.49645 16.1239 5.46116 16.0979 5.43514C16.0719 5.40911 16.0366 5.39449 15.9998 5.39449ZM24.2567 15.2664H26.4664C26.6609 15.2664 26.8474 15.3436 26.985 15.4812C27.1225 15.6187 27.1998 15.8053 27.1998 15.9998C27.1998 16.1943 27.1225 16.3809 26.985 16.5184C26.8474 16.656 26.6609 16.7333 26.4664 16.7333H24.2567C24.081 18.6663 23.2336 20.4803 21.8569 21.8569C20.4803 23.2336 18.6663 24.081 16.7333 24.2567V26.4663C16.7333 26.6609 16.656 26.8474 16.5184 26.985C16.3809 27.1225 16.1943 27.1998 15.9998 27.1998C15.8053 27.1998 15.6187 27.1225 15.4812 26.985C15.3436 26.8474 15.2664 26.6609 15.2664 26.4663V24.2567C13.3333 24.0813 11.5191 23.2339 10.1424 21.8572C8.76574 20.4805 7.91835 18.6663 7.74288 16.7333H5.53326C5.33873 16.7333 5.15218 16.656 5.01463 16.5184C4.87708 16.3809 4.7998 16.1943 4.7998 15.9998C4.7998 15.8053 4.87708 15.6187 5.01463 15.4812C5.15218 15.3436 5.33873 15.2664 5.53326 15.2664H7.74288C7.91835 13.3333 8.76574 11.5191 10.1424 10.1424C11.5191 8.76574 13.3333 7.91835 15.2664 7.74288V5.53326C15.2664 5.33873 15.3436 5.15218 15.4812 5.01463C15.6187 4.87708 15.8053 4.7998 15.9998 4.7998C16.1943 4.7998 16.3809 4.87708 16.5184 5.01463C16.656 5.15218 16.7333 5.33873 16.7333 5.53326V7.74288C18.6663 7.91835 20.4805 8.76574 21.8572 10.1424C23.2339 11.5191 24.0813 13.3333 24.2567 15.2664ZM16.095 8.53083L16.4111 8.55092C18.2169 8.66559 19.9189 9.43467 21.1983 10.7141C22.4777 11.9935 23.2468 13.6955 23.3615 15.5012L23.3815 15.8174H20.797C20.7602 15.8174 20.7249 15.8321 20.6989 15.8581C20.6728 15.8841 20.6582 15.9194 20.6582 15.9562C20.6582 15.993 20.6728 16.0283 20.6989 16.0543C20.7249 16.0803 20.7602 16.095 20.797 16.095H23.4702L23.4486 16.4125C23.3253 18.2264 22.549 19.9342 21.2634 21.2198C19.9778 22.5054 18.27 23.2817 16.4561 23.405L16.1386 23.4266V20.797C16.1386 20.7602 16.1239 20.7249 16.0979 20.6989C16.0719 20.6728 16.0366 20.6582 15.9998 20.6582C15.963 20.6582 15.9277 20.6728 15.9017 20.6989C15.8757 20.7249 15.861 20.7602 15.861 20.797V23.4688L15.5449 23.4487C13.7391 23.334 12.0371 22.5649 10.7577 21.2855C9.47828 20.0061 8.7092 18.3041 8.59453 16.4984L8.57445 16.1822H11.2026C11.2394 16.1822 11.2747 16.1676 11.3008 16.1415C11.3268 16.1155 11.3414 16.0802 11.3414 16.0434C11.3414 16.0066 11.3268 15.9713 11.3008 15.9453C11.2747 15.9193 11.2394 15.9047 11.2026 15.9047H8.53083L8.55092 15.5885C8.66559 13.7827 9.43467 12.0807 10.7141 10.8013C11.9935 9.52189 13.6955 8.75281 15.5012 8.63814L15.8174 8.61806V11.2026C15.8174 11.2394 15.8321 11.2747 15.8581 11.3008C15.8841 11.3268 15.9194 11.3414 15.9562 11.3414C15.993 11.3414 16.0283 11.3268 16.0543 11.3008C16.0803 11.2747 16.095 11.2394 16.095 11.2026V8.53083ZM16.6896 9.17186V11.2026C16.6896 11.3972 16.6124 11.5837 16.4748 11.7213C16.3373 11.8588 16.1507 11.9361 15.9562 11.9361C15.7617 11.9361 15.5751 11.8588 15.4376 11.7213C15.3 11.5837 15.2227 11.3972 15.2227 11.2026V9.25908C13.6797 9.42917 12.2367 10.1197 11.1346 11.2218C10.0325 12.324 9.34195 13.7669 9.17186 15.31H11.2026C11.3972 15.31 11.5837 15.3872 11.7213 15.5248C11.8588 15.6623 11.9361 15.8489 11.9361 16.0434C11.9361 16.2379 11.8588 16.4245 11.7213 16.562C11.5837 16.6996 11.3972 16.7769 11.2026 16.7769H9.21547C9.38556 18.3199 10.0761 19.7629 11.1782 20.865C12.2804 21.9671 13.7233 22.6577 15.2664 22.8277V20.797C15.2664 20.6024 15.3436 20.4159 15.4812 20.2783C15.6187 20.1408 15.8053 20.0635 15.9998 20.0635C16.1943 20.0635 16.3809 20.1408 16.5184 20.2783C16.656 20.4159 16.7333 20.6024 16.7333 20.797V22.7827C18.2847 22.6053 19.7343 21.9079 20.8429 20.7993C21.9515 19.6907 22.6489 18.2411 22.8263 16.6896H20.797C20.6024 16.6896 20.4159 16.6124 20.2783 16.4748C20.1408 16.3373 20.0635 16.1507 20.0635 15.9562C20.0635 15.7617 20.1408 15.5751 20.2783 15.4376C20.4159 15.3 20.6024 15.2227 20.797 15.2227H22.7405C22.5704 13.6797 21.8799 12.2367 20.7778 11.1346C19.6756 10.0325 18.2327 9.34195 16.6896 9.17186Z" fill="black"/>
</svg>
