<svg width="32" height="32" viewBox="0 0 32 32" fill="none" xmlns="http://www.w3.org/2000/svg">
<path fill-rule="evenodd" clip-rule="evenodd" d="M15.088 20.0183C15.2681 20.1984 15.5158 20.2884 15.7634 20.2884C16.011 20.2884 16.2587 20.1984 16.4388 19.9958L21.8643 14.5703L20.5136 13.2195L16.7089 17.0241V4.7998H14.7954V17.0241L11.0133 13.242L9.66251 14.5928L15.088 20.0183ZM18.7126 8.2217H23.5978C25.5789 8.2217 27.1998 9.84261 27.1998 11.8237V21.8193C27.1998 23.8004 25.5789 25.4213 23.5978 25.4213H8.40181C6.42071 25.4213 4.7998 23.8004 4.7998 21.8193V11.8237C4.7998 9.84261 6.42071 8.2217 8.40181 8.2217H12.7467V10.0227H8.40181C7.41126 10.0227 6.60081 10.8332 6.60081 11.8237V21.8193C6.60081 22.8098 7.41126 23.6203 8.40181 23.6203H23.5978C24.5883 23.6203 25.3988 22.8098 25.3988 21.8193V11.8237C25.3988 10.8332 24.5883 10.0227 23.5978 10.0227H18.7126V8.2217Z" fill="black"/>
</svg>
