<svg width="32" height="32" viewBox="0 0 32 32" fill="none" xmlns="http://www.w3.org/2000/svg">
<path fill-rule="evenodd" clip-rule="evenodd" d="M13.4912 19.0916L8.58561 14.186L9.90721 12.8644L13.2224 16.1572V5.38281H15.104V16.1572L18.3968 12.842L19.7408 14.186L14.8352 19.0916C14.656 19.2708 14.4096 19.3604 14.1632 19.3604C13.9168 19.3604 13.6704 19.2708 13.4912 19.0916ZM23.952 11.6549H24.1312C25.8784 11.6549 27.2896 13.0661 27.2896 14.8133V23.3253C27.2896 25.0725 25.8784 26.4837 24.1312 26.4837H11.184C9.52645 26.4837 8.16005 25.1845 8.04805 23.5269H7.86885C6.12165 23.5269 4.71045 22.1157 4.71045 20.3685V11.8565C4.71045 10.1093 6.12165 8.69807 7.86885 8.69807H11.6768V10.4005H7.86885C7.08485 10.4005 6.43525 11.0277 6.43525 11.8341V20.3461C6.43525 21.1301 7.06245 21.7797 7.86885 21.7797H20.7936C21.5776 21.7797 22.2272 21.1525 22.2272 20.3461V11.8341C22.2272 11.0501 21.6 10.4005 20.7936 10.4005H16.5376V8.69807H20.7936C22.4736 8.69807 23.84 9.99727 23.952 11.6549ZM24.1536 24.7589C24.9376 24.7589 25.5872 24.1317 25.5872 23.3253H25.5648V14.7909C25.5648 14.0069 24.9376 13.3573 24.1312 13.3573H23.9744V20.3685C23.9744 22.1157 22.5632 23.5269 20.816 23.5269H9.75045C9.86245 24.2213 10.4672 24.7589 11.184 24.7589H24.1536Z" fill="black"/>
</svg>
