<svg width="119" height="29" viewBox="0 0 119 29" fill="none" xmlns="http://www.w3.org/2000/svg">
<path fill-rule="evenodd" clip-rule="evenodd" d="M19.9578 6.64605L26.4303 10.9429L31.2181 7.77502L19.9578 0.301514L19.9429 0.313379L8.67969 7.78689L13.4673 10.9517L19.9429 6.65488L19.9578 6.64605ZM106.479 9.82386C106.479 8.60594 107.816 7.92729 109.596 7.92729L109.608 7.91246C111.59 7.91246 113.025 8.75405 113.485 10.215H118.068C117.392 5.88259 113.731 4.20244 109.881 4.20244C106.031 4.20244 101.721 6.07225 101.721 10.0816C101.721 13.6021 104.622 15.1193 107.819 15.7949L110.192 16.2839C112.334 16.758 113.853 17.3803 113.853 18.6545C113.853 20.2784 112.064 20.7941 110.492 20.7941C108.077 20.7941 106.452 19.8606 105.939 17.7863H101.329C102.032 22.012 105.34 24.5338 110.382 24.5338C114.473 24.5338 118.626 22.2017 118.626 18.0856C118.626 13.9695 114.612 12.9946 111.441 12.3427L108.757 11.8004C107.401 11.504 106.479 10.7988 106.479 9.82386ZM56.1428 4.54283L60.6695 18.9798L65.1964 4.54283H69.9158L63.2444 24.1804H57.8217L51.2067 4.54283H56.1428ZM83.2765 8.60545H76.9879V4.54283H94.258V8.60545H87.9426V24.1804H83.2765V8.60545ZM0.397461 8.07108L19.9402 20.3152L19.9431 20.3122L39.4888 8.06812V16.2348L19.9431 28.4789L19.9402 28.4819L0.397461 16.2378V8.07108Z" fill="#5528FF"/>
</svg>
