<svg width="32" height="32" viewBox="0 0 32 32" fill="none" xmlns="http://www.w3.org/2000/svg">
<path fill-rule="evenodd" clip-rule="evenodd" d="M26.2311 6.2589C26.4118 6.30118 26.581 6.3831 26.7262 6.49873V6.49966C26.8716 6.61291 26.9897 6.75747 27.0716 6.92259C27.1535 7.08772 27.1972 7.26918 27.1994 7.4535V22.3751C27.2069 22.6579 27.1135 22.9333 26.9362 23.1572C26.7589 23.3803 26.5087 23.5362 26.2288 23.5978L16.2732 25.7994H15.7263L5.77076 23.5968C5.49077 23.5343 5.24065 23.3794 5.06332 23.1563C4.88599 22.9333 4.7936 22.657 4.80013 22.3742V7.4535C4.79673 7.26684 4.836 7.08188 4.91492 6.91269C4.99385 6.74351 5.11037 6.59459 5.25558 6.47726C5.40309 6.35933 5.57512 6.27591 5.75906 6.23312C5.94301 6.19032 6.1342 6.18924 6.31861 6.22994L15.9998 8.3952L25.6809 6.2542C25.8624 6.21501 26.0503 6.21661 26.2311 6.2589ZM14.9498 10.3999L6.90006 8.39613V21.9495L14.9498 23.6995V10.3999ZM17.0497 23.7004L25.0995 21.9505V8.3952L17.0497 10.3999V23.7004Z" fill="black"/>
</svg>
